<svg width="192" height="192" viewBox="0 0 192 192" fill="none" xmlns="http://www.w3.org/2000/svg">
<rect width="192" height="192" fill="#171717"/>
<path d="M26.6121 121V71.3515H32.6242V115.667H55.703V121H26.6121ZM81.7879 69.0242L65.7879 128.467H60.5515L76.5515 69.0242H81.7879ZM116.497 83.7636C116.206 81.3071 115.026 79.4 112.958 78.0424C110.889 76.6848 108.352 76.0061 105.345 76.0061C103.147 76.0061 101.224 76.3616 99.5758 77.0727C97.9434 77.7838 96.6667 78.7616 95.7455 80.0061C94.8404 81.2505 94.3879 82.6646 94.3879 84.2485C94.3879 85.5737 94.703 86.7131 95.3333 87.6667C95.9798 88.604 96.804 89.3879 97.8061 90.0182C98.8081 90.6323 99.8586 91.1414 100.958 91.5455C102.057 91.9333 103.067 92.2485 103.988 92.4909L109.03 93.8485C110.323 94.1879 111.762 94.6566 113.345 95.2545C114.945 95.8525 116.473 96.6687 117.927 97.703C119.398 98.7212 120.61 100.03 121.564 101.63C122.517 103.23 122.994 105.194 122.994 107.521C122.994 110.204 122.291 112.628 120.885 114.794C119.495 116.96 117.459 118.681 114.776 119.958C112.109 121.234 108.869 121.873 105.055 121.873C101.499 121.873 98.4202 121.299 95.8182 120.152C93.2323 119.004 91.196 117.404 89.7091 115.352C88.2384 113.299 87.4061 110.915 87.2121 108.2H93.4182C93.5798 110.075 94.2101 111.626 95.3091 112.855C96.4242 114.067 97.8303 114.972 99.5273 115.57C101.24 116.152 103.083 116.442 105.055 116.442C107.349 116.442 109.41 116.071 111.236 115.327C113.063 114.568 114.509 113.517 115.576 112.176C116.642 110.818 117.176 109.234 117.176 107.424C117.176 105.776 116.715 104.434 115.794 103.4C114.873 102.366 113.661 101.525 112.158 100.879C110.655 100.232 109.03 99.6667 107.285 99.1818L101.176 97.4364C97.297 96.3212 94.2263 94.7293 91.9636 92.6606C89.701 90.5919 88.5697 87.8848 88.5697 84.5394C88.5697 81.7596 89.3212 79.3353 90.8242 77.2667C92.3434 75.1818 94.3798 73.5657 96.9333 72.4182C99.503 71.2545 102.372 70.6727 105.539 70.6727C108.739 70.6727 111.584 71.2465 114.073 72.3939C116.562 73.5252 118.533 75.0768 119.988 77.0485C121.459 79.0202 122.234 81.2586 122.315 83.7636H116.497ZM132.879 121V71.3515H138.891V95.9818H139.473L161.776 71.3515H169.63L148.782 93.7515L169.63 121H162.358L145.097 97.9212L138.891 104.903V121H132.879Z" fill="#34D399"/>
</svg>
