<svg width="180" height="180" viewBox="0 0 180 180" fill="none" xmlns="http://www.w3.org/2000/svg">
<rect width="180" height="180" fill="#171717"/>
<path d="M24.9489 113V66.4545H30.5852V108H52.2216V113H24.9489ZM76.6761 64.2727L61.6761 120H56.767L71.767 64.2727H76.6761ZM109.216 78.0909C108.943 75.7879 107.837 74 105.898 72.7273C103.958 71.4545 101.58 70.8182 98.7614 70.8182C96.7008 70.8182 94.8977 71.1515 93.3523 71.8182C91.822 72.4848 90.625 73.4015 89.7614 74.5682C88.9129 75.7348 88.4886 77.0606 88.4886 78.5455C88.4886 79.7879 88.7841 80.8561 89.375 81.75C89.9811 82.6288 90.7538 83.3636 91.6932 83.9545C92.6326 84.5303 93.6174 85.0076 94.6477 85.3864C95.678 85.75 96.625 86.0455 97.4886 86.2727L102.216 87.5455C103.428 87.8636 104.777 88.303 106.261 88.8636C107.761 89.4242 109.193 90.1894 110.557 91.1591C111.936 92.1136 113.072 93.3409 113.966 94.8409C114.86 96.3409 115.307 98.1818 115.307 100.364C115.307 102.879 114.648 105.152 113.33 107.182C112.027 109.212 110.117 110.826 107.602 112.023C105.102 113.22 102.064 113.818 98.4886 113.818C95.1553 113.818 92.2689 113.28 89.8295 112.205C87.4053 111.129 85.4962 109.629 84.1023 107.705C82.7235 105.78 81.9432 103.545 81.7614 101H87.5795C87.7311 102.758 88.322 104.212 89.3523 105.364C90.3977 106.5 91.7159 107.348 93.3068 107.909C94.9129 108.455 96.6402 108.727 98.4886 108.727C100.64 108.727 102.572 108.379 104.284 107.682C105.996 106.97 107.352 105.985 108.352 104.727C109.352 103.455 109.852 101.97 109.852 100.273C109.852 98.7273 109.42 97.4697 108.557 96.5C107.693 95.5303 106.557 94.7424 105.148 94.1364C103.739 93.5303 102.216 93 100.58 92.5455L94.8523 90.9091C91.2159 89.8636 88.3371 88.3712 86.2159 86.4318C84.0947 84.4924 83.0341 81.9545 83.0341 78.8182C83.0341 76.2121 83.7386 73.9394 85.1477 72C86.572 70.0455 88.4811 68.5303 90.875 67.4545C93.2841 66.3636 95.9735 65.8182 98.9432 65.8182C101.943 65.8182 104.61 66.3561 106.943 67.4318C109.277 68.4924 111.125 69.947 112.489 71.7955C113.867 73.6439 114.595 75.7424 114.67 78.0909H109.216ZM124.574 113V66.4545H130.21V89.5455H130.756L151.665 66.4545H159.028L139.483 87.4545L159.028 113H152.21L136.028 91.3636L130.21 97.9091V113H124.574Z" fill="#34D399"/>
</svg>
