<svg width="32" height="32" viewBox="0 0 32 32" fill="none" xmlns="http://www.w3.org/2000/svg">
<rect width="32" height="32" fill="#171717"/>
<path d="M4.43543 19.6667V11.3919H5.43745V18.7778H9.28392V19.6667H4.43543ZM13.6314 11.004L10.9647 20.9111H10.092L12.7587 11.004H13.6314ZM19.4162 13.4606C19.3678 13.0512 19.1711 12.7333 18.8263 12.5071C18.4816 12.2808 18.0587 12.1677 17.5577 12.1677C17.1913 12.1677 16.8708 12.2269 16.596 12.3455C16.324 12.464 16.1112 12.6269 15.9577 12.8343C15.8068 13.0417 15.7314 13.2774 15.7314 13.5414C15.7314 13.7623 15.7839 13.9522 15.889 14.1111C15.9967 14.2673 16.1341 14.398 16.3011 14.503C16.4681 14.6054 16.6432 14.6902 16.8263 14.7576C17.0095 14.8222 17.1779 14.8747 17.3314 14.9151L18.1718 15.1414C18.3873 15.198 18.627 15.2761 18.891 15.3758C19.1577 15.4754 19.4122 15.6114 19.6546 15.7838C19.8997 15.9535 20.1018 16.1717 20.2607 16.4384C20.4196 16.705 20.4991 17.0323 20.4991 17.4202C20.4991 17.8673 20.3819 18.2714 20.1476 18.6323C19.9159 18.9933 19.5765 19.2801 19.1294 19.4929C18.6849 19.7057 18.1449 19.8121 17.5092 19.8121C16.9166 19.8121 16.4034 19.7165 15.9698 19.5252C15.5388 19.334 15.1994 19.0673 14.9516 18.7252C14.7065 18.3832 14.5678 17.9859 14.5354 17.5333H15.5698C15.5967 17.8458 15.7018 18.1044 15.8849 18.3091C16.0708 18.5111 16.3051 18.662 16.588 18.7616C16.8735 18.8586 17.1806 18.9071 17.5092 18.9071C17.8917 18.9071 18.2351 18.8451 18.5395 18.7212C18.8439 18.5946 19.0849 18.4195 19.2627 18.196C19.4405 17.9697 19.5294 17.7057 19.5294 17.404C19.5294 17.1293 19.4526 16.9057 19.2991 16.7333C19.1455 16.5609 18.9435 16.4209 18.693 16.3131C18.4425 16.2054 18.1718 16.1111 17.8809 16.0303L16.8627 15.7394C16.2162 15.5535 15.7045 15.2882 15.3274 14.9434C14.9502 14.5987 14.7617 14.1475 14.7617 13.5899C14.7617 13.1266 14.8869 12.7226 15.1375 12.3778C15.3907 12.0303 15.73 11.7609 16.1556 11.5697C16.5839 11.3758 17.062 11.2788 17.59 11.2788C18.1233 11.2788 18.5974 11.3744 19.0122 11.5657C19.427 11.7542 19.7556 12.0128 19.9981 12.3414C20.2432 12.67 20.3725 13.0431 20.3859 13.4606H19.4162ZM22.1465 19.6667V11.3919H23.1486V15.497H23.2455L26.9627 11.3919H28.2718L24.797 15.1252L28.2718 19.6667H27.0597L24.1829 15.8202L23.1486 16.9838V19.6667H22.1465Z" fill="#34D399"/>
</svg>
