<svg width="512" height="512" viewBox="0 0 512 512" fill="none" xmlns="http://www.w3.org/2000/svg">
<rect width="512" height="512" fill="#171717"/>
<path d="M70.9657 322.667V190.271H86.998V308.444H148.541V322.667H70.9657ZM218.101 184.065L175.434 342.578H161.471L204.137 184.065H218.101ZM310.659 223.37C309.883 216.819 306.737 211.733 301.22 208.113C295.704 204.493 288.937 202.683 280.921 202.683C275.06 202.683 269.931 203.631 265.535 205.527C261.183 207.424 257.778 210.031 255.321 213.35C252.908 216.668 251.701 220.439 251.701 224.663C251.701 228.197 252.541 231.235 254.222 233.778C255.946 236.277 258.144 238.368 260.816 240.048C263.488 241.686 266.29 243.044 269.22 244.121C272.151 245.156 274.845 245.996 277.301 246.642L290.748 250.263C294.195 251.168 298.031 252.418 302.255 254.012C306.521 255.607 310.594 257.783 314.473 260.541C318.395 263.257 321.627 266.747 324.17 271.014C326.713 275.281 327.984 280.517 327.984 286.723C327.984 293.877 326.109 300.342 322.36 306.117C318.653 311.892 313.223 316.482 306.069 319.887C298.958 323.292 290.317 324.994 280.146 324.994C270.664 324.994 262.454 323.464 255.515 320.404C248.62 317.344 243.189 313.077 239.224 307.604C235.302 302.131 233.083 295.774 232.566 288.533H249.115C249.546 293.533 251.227 297.67 254.158 300.945C257.131 304.178 260.881 306.591 265.406 308.186C269.974 309.737 274.888 310.513 280.146 310.513C286.265 310.513 291.76 309.522 296.63 307.539C301.5 305.514 305.358 302.712 308.202 299.135C311.047 295.515 312.469 291.292 312.469 286.465C312.469 282.069 311.24 278.492 308.784 275.733C306.327 272.975 303.095 270.734 299.087 269.01C295.079 267.286 290.748 265.778 286.093 264.485L269.802 259.83C259.459 256.857 251.27 252.611 245.236 247.095C239.203 241.578 236.186 234.36 236.186 225.438C236.186 218.026 238.19 211.561 242.198 206.044C246.249 200.485 251.68 196.175 258.489 193.115C265.341 190.012 272.991 188.461 281.438 188.461C289.972 188.461 297.557 189.991 304.194 193.051C310.831 196.067 316.089 200.205 319.968 205.463C323.89 210.721 325.958 216.69 326.174 223.37H310.659ZM354.343 322.667V190.271H370.376V255.952H371.927L431.402 190.271H452.348L396.752 250.004L452.348 322.667H432.954L386.925 261.123L370.376 279.741V322.667H354.343Z" fill="#34D399"/>
</svg>
