<svg width="180" height="180" viewBox="0 0 180 180" fill="none" xmlns="http://www.w3.org/2000/svg">
<rect width="180" height="180" rx="4" fill="#171717"/>
<path d="M50.128 58.96V130H41.392V58.96H50.128ZM83.641 130.864C79.609 130.864 75.993 130.192 72.793 128.848C69.593 127.44 67.065 125.52 65.209 123.088C63.353 120.592 62.329 117.744 62.137 114.544H71.161C71.417 117.168 72.633 119.312 74.809 120.976C77.049 122.64 79.961 123.472 83.545 123.472C86.873 123.472 89.497 122.736 91.417 121.264C93.337 119.792 94.297 117.936 94.297 115.696C94.297 113.392 93.273 111.696 91.225 110.608C89.177 109.456 86.009 108.336 81.721 107.248C77.817 106.224 74.617 105.2 72.121 104.176C69.689 103.088 67.577 101.52 65.785 99.472C64.057 97.36 63.193 94.608 63.193 91.216C63.193 88.528 63.993 86.064 65.593 83.824C67.193 81.584 69.465 79.824 72.409 78.544C75.353 77.2 78.713 76.528 82.489 76.528C88.313 76.528 93.017 78 96.601 80.944C100.185 83.888 102.105 87.92 102.361 93.04H93.625C93.433 90.288 92.313 88.08 90.265 86.416C88.281 84.752 85.593 83.92 82.201 83.92C79.065 83.92 76.569 84.592 74.713 85.936C72.857 87.28 71.929 89.04 71.929 91.216C71.929 92.944 72.473 94.384 73.561 95.536C74.713 96.624 76.121 97.52 77.785 98.224C79.513 98.864 81.881 99.6 84.889 100.432C88.665 101.456 91.737 102.48 94.105 103.504C96.473 104.464 98.489 105.936 100.153 107.92C101.881 109.904 102.777 112.496 102.841 115.696C102.841 118.576 102.041 121.168 100.441 123.472C98.841 125.776 96.569 127.6 93.625 128.944C90.745 130.224 87.417 130.864 83.641 130.864ZM144.549 130L123.909 106.768V130H115.173V58.96H123.909V100.72L144.165 77.392H156.357L131.589 103.6L156.453 130H144.549Z" fill="#FAFAFA"/>
</svg>
