<svg width="1440" height="720" viewBox="0 0 1440 720" fill="none" xmlns="http://www.w3.org/2000/svg">
<rect width="1440" height="720" fill="#171717"/>
<path d="M337.545 313.909V407H326.818V313.909H337.545ZM386.466 408.455C379.739 408.455 373.936 406.97 369.057 404C364.208 401 360.466 396.818 357.83 391.455C355.223 386.061 353.92 379.788 353.92 372.636C353.92 365.485 355.223 359.182 357.83 353.727C360.466 348.242 364.133 343.97 368.83 340.909C373.557 337.818 379.072 336.273 385.375 336.273C389.011 336.273 392.602 336.879 396.148 338.091C399.693 339.303 402.92 341.273 405.83 344C408.739 346.697 411.057 350.273 412.784 354.727C414.511 359.182 415.375 364.667 415.375 371.182V375.727H361.557V366.455H404.466C404.466 362.515 403.678 359 402.102 355.909C400.557 352.818 398.345 350.379 395.466 348.591C392.617 346.803 389.254 345.909 385.375 345.909C381.102 345.909 377.405 346.97 374.284 349.091C371.193 351.182 368.814 353.909 367.148 357.273C365.481 360.636 364.648 364.242 364.648 368.091V374.273C364.648 379.545 365.557 384.015 367.375 387.682C369.223 391.318 371.784 394.091 375.057 396C378.33 397.879 382.133 398.818 386.466 398.818C389.284 398.818 391.83 398.424 394.102 397.636C396.405 396.818 398.39 395.606 400.057 394C401.723 392.364 403.011 390.333 403.92 387.909L414.284 390.818C413.193 394.333 411.36 397.424 408.784 400.091C406.208 402.727 403.027 404.788 399.239 406.273C395.451 407.727 391.193 408.455 386.466 408.455ZM452.239 408.636C447.814 408.636 443.799 407.803 440.193 406.136C436.587 404.439 433.723 402 431.602 398.818C429.481 395.606 428.42 391.727 428.42 387.182C428.42 383.182 429.208 379.939 430.784 377.455C432.36 374.939 434.466 372.97 437.102 371.545C439.739 370.121 442.648 369.061 445.83 368.364C449.042 367.636 452.269 367.061 455.511 366.636C459.754 366.091 463.193 365.682 465.83 365.409C468.496 365.106 470.436 364.606 471.648 363.909C472.89 363.212 473.511 362 473.511 360.273V359.909C473.511 355.424 472.284 351.939 469.83 349.455C467.405 346.97 463.723 345.727 458.784 345.727C453.663 345.727 449.648 346.848 446.739 349.091C443.83 351.333 441.784 353.727 440.602 356.273L430.42 352.636C432.239 348.394 434.663 345.091 437.693 342.727C440.754 340.333 444.087 338.667 447.693 337.727C451.33 336.758 454.905 336.273 458.42 336.273C460.663 336.273 463.239 336.545 466.148 337.091C469.087 337.606 471.92 338.682 474.648 340.318C477.405 341.955 479.693 344.424 481.511 347.727C483.33 351.03 484.239 355.455 484.239 361V407H473.511V397.545H472.966C472.239 399.061 471.027 400.682 469.33 402.409C467.633 404.136 465.375 405.606 462.557 406.818C459.739 408.03 456.299 408.636 452.239 408.636ZM453.875 399C458.117 399 461.693 398.167 464.602 396.5C467.542 394.833 469.754 392.682 471.239 390.045C472.754 387.409 473.511 384.636 473.511 381.727V371.909C473.057 372.455 472.057 372.955 470.511 373.409C468.996 373.833 467.239 374.212 465.239 374.545C463.269 374.848 461.345 375.121 459.466 375.364C457.617 375.576 456.117 375.758 454.966 375.909C452.178 376.273 449.572 376.864 447.148 377.682C444.754 378.47 442.814 379.667 441.33 381.273C439.875 382.848 439.148 385 439.148 387.727C439.148 391.455 440.527 394.273 443.284 396.182C446.072 398.061 449.602 399 453.875 399ZM503.818 407V337.182H514.182V347.727H514.909C516.182 344.273 518.485 341.47 521.818 339.318C525.152 337.167 528.909 336.091 533.091 336.091C533.879 336.091 534.864 336.106 536.045 336.136C537.227 336.167 538.121 336.212 538.727 336.273V347.182C538.364 347.091 537.53 346.955 536.227 346.773C534.955 346.561 533.606 346.455 532.182 346.455C528.788 346.455 525.758 347.167 523.091 348.591C520.455 349.985 518.364 351.924 516.818 354.409C515.303 356.864 514.545 359.667 514.545 362.818V407H503.818ZM562.17 365V407H551.443V337.182H561.807V348.091H562.716C564.352 344.545 566.837 341.697 570.17 339.545C573.504 337.364 577.807 336.273 583.08 336.273C587.807 336.273 591.943 337.242 595.489 339.182C599.034 341.091 601.792 344 603.761 347.909C605.731 351.788 606.716 356.697 606.716 362.636V407H595.989V363.364C595.989 357.879 594.564 353.606 591.716 350.545C588.867 347.455 584.958 345.909 579.989 345.909C576.564 345.909 573.504 346.652 570.807 348.136C568.14 349.621 566.034 351.788 564.489 354.636C562.943 357.485 562.17 360.939 562.17 365ZM675.773 352.818L666.136 355.545C665.53 353.939 664.636 352.379 663.455 350.864C662.303 349.318 660.727 348.045 658.727 347.045C656.727 346.045 654.167 345.545 651.045 345.545C646.773 345.545 643.212 346.53 640.364 348.5C637.545 350.439 636.136 352.909 636.136 355.909C636.136 358.576 637.106 360.682 639.045 362.227C640.985 363.773 644.015 365.061 648.136 366.091L658.5 368.636C664.742 370.152 669.394 372.47 672.455 375.591C675.515 378.682 677.045 382.667 677.045 387.545C677.045 391.545 675.894 395.121 673.591 398.273C671.318 401.424 668.136 403.909 664.045 405.727C659.955 407.545 655.197 408.455 649.773 408.455C642.652 408.455 636.758 406.909 632.091 403.818C627.424 400.727 624.47 396.212 623.227 390.273L633.409 387.727C634.379 391.485 636.212 394.303 638.909 396.182C641.636 398.061 645.197 399 649.591 399C654.591 399 658.561 397.939 661.5 395.818C664.47 393.667 665.955 391.091 665.955 388.091C665.955 385.667 665.106 383.636 663.409 382C661.712 380.333 659.106 379.091 655.591 378.273L643.955 375.545C637.561 374.03 632.864 371.682 629.864 368.5C626.894 365.288 625.409 361.273 625.409 356.455C625.409 352.515 626.515 349.03 628.727 346C630.97 342.97 634.015 340.591 637.864 338.864C641.742 337.136 646.136 336.273 651.045 336.273C657.955 336.273 663.379 337.788 667.318 340.818C671.288 343.848 674.106 347.848 675.773 352.818ZM750.284 337.182L724.466 407H713.557L687.739 337.182H699.375L718.648 392.818H719.375L738.648 337.182H750.284ZM791.216 408.455C784.489 408.455 778.686 406.97 773.807 404C768.958 401 765.216 396.818 762.58 391.455C759.973 386.061 758.67 379.788 758.67 372.636C758.67 365.485 759.973 359.182 762.58 353.727C765.216 348.242 768.883 343.97 773.58 340.909C778.307 337.818 783.822 336.273 790.125 336.273C793.761 336.273 797.352 336.879 800.898 338.091C804.443 339.303 807.67 341.273 810.58 344C813.489 346.697 815.807 350.273 817.534 354.727C819.261 359.182 820.125 364.667 820.125 371.182V375.727H766.307V366.455H809.216C809.216 362.515 808.428 359 806.852 355.909C805.307 352.818 803.095 350.379 800.216 348.591C797.367 346.803 794.004 345.909 790.125 345.909C785.852 345.909 782.155 346.97 779.034 349.091C775.943 351.182 773.564 353.909 771.898 357.273C770.231 360.636 769.398 364.242 769.398 368.091V374.273C769.398 379.545 770.307 384.015 772.125 387.682C773.973 391.318 776.534 394.091 779.807 396C783.08 397.879 786.883 398.818 791.216 398.818C794.034 398.818 796.58 398.424 798.852 397.636C801.155 396.818 803.14 395.606 804.807 394C806.473 392.364 807.761 390.333 808.67 387.909L819.034 390.818C817.943 394.333 816.11 397.424 813.534 400.091C810.958 402.727 807.777 404.788 803.989 406.273C800.201 407.727 795.943 408.455 791.216 408.455ZM847.17 313.909V407H836.443V313.909H847.17ZM897.182 337.182V346.273H861V337.182H897.182ZM871.545 320.455H882.273V387C882.273 390.03 882.712 392.303 883.591 393.818C884.5 395.303 885.652 396.303 887.045 396.818C888.47 397.303 889.97 397.545 891.545 397.545C892.727 397.545 893.697 397.485 894.455 397.364C895.212 397.212 895.818 397.091 896.273 397L898.455 406.636C897.727 406.909 896.712 407.182 895.409 407.455C894.106 407.758 892.455 407.909 890.455 407.909C887.424 407.909 884.455 407.258 881.545 405.955C878.667 404.652 876.273 402.667 874.364 400C872.485 397.333 871.545 393.97 871.545 389.909V320.455ZM941.841 408.455C935.114 408.455 929.311 406.97 924.432 404C919.583 401 915.841 396.818 913.205 391.455C910.598 386.061 909.295 379.788 909.295 372.636C909.295 365.485 910.598 359.182 913.205 353.727C915.841 348.242 919.508 343.97 924.205 340.909C928.932 337.818 934.447 336.273 940.75 336.273C944.386 336.273 947.977 336.879 951.523 338.091C955.068 339.303 958.295 341.273 961.205 344C964.114 346.697 966.432 350.273 968.159 354.727C969.886 359.182 970.75 364.667 970.75 371.182V375.727H916.932V366.455H959.841C959.841 362.515 959.053 359 957.477 355.909C955.932 352.818 953.72 350.379 950.841 348.591C947.992 346.803 944.629 345.909 940.75 345.909C936.477 345.909 932.78 346.97 929.659 349.091C926.568 351.182 924.189 353.909 922.523 357.273C920.856 360.636 920.023 364.242 920.023 368.091V374.273C920.023 379.545 920.932 384.015 922.75 387.682C924.598 391.318 927.159 394.091 930.432 396C933.705 397.879 937.508 398.818 941.841 398.818C944.659 398.818 947.205 398.424 949.477 397.636C951.78 396.818 953.765 395.606 955.432 394C957.098 392.364 958.386 390.333 959.295 387.909L969.659 390.818C968.568 394.333 966.735 397.424 964.159 400.091C961.583 402.727 958.402 404.788 954.614 406.273C950.826 407.727 946.568 408.455 941.841 408.455ZM997.068 381.545L996.886 368.273H999.068L1029.61 337.182H1042.89L1010.34 370.091H1009.43L997.068 381.545ZM987.068 407V313.909H997.795V407H987.068ZM1031.43 407L1004.16 372.455L1011.8 365L1045.07 407H1031.43ZM1056.69 407V337.182H1067.42V407H1056.69ZM1062.15 325.545C1060.06 325.545 1058.25 324.833 1056.74 323.409C1055.25 321.985 1054.51 320.273 1054.51 318.273C1054.51 316.273 1055.25 314.561 1056.74 313.136C1058.25 311.712 1060.06 311 1062.15 311C1064.24 311 1066.03 311.712 1067.51 313.136C1069.03 314.561 1069.78 316.273 1069.78 318.273C1069.78 320.273 1069.03 321.985 1067.51 323.409C1066.03 324.833 1064.24 325.545 1062.15 325.545ZM1117.43 337.182V346.273H1081.25V337.182H1117.43ZM1091.8 320.455H1102.52V387C1102.52 390.03 1102.96 392.303 1103.84 393.818C1104.75 395.303 1105.9 396.303 1107.3 396.818C1108.72 397.303 1110.22 397.545 1111.8 397.545C1112.98 397.545 1113.95 397.485 1114.7 397.364C1115.46 397.212 1116.07 397.091 1116.52 397L1118.7 406.636C1117.98 406.909 1116.96 407.182 1115.66 407.455C1114.36 407.758 1112.7 407.909 1110.7 407.909C1107.67 407.909 1104.7 407.258 1101.8 405.955C1098.92 404.652 1096.52 402.667 1094.61 400C1092.73 397.333 1091.8 393.97 1091.8 389.909V320.455Z" fill="#34D399"/>
</svg>
