<svg width="1440" height="720" viewBox="0 0 1440 720" fill="none" xmlns="http://www.w3.org/2000/svg">
<rect width="1440" height="720" fill="#171717"/>
<path d="M317.504 310.28V405H305.856V310.28H317.504ZM401.356 367.24C401.356 369.459 401.228 371.805 400.972 374.28H344.908C345.335 381.192 347.681 386.611 351.948 390.536C356.3 394.376 361.548 396.296 367.692 396.296C372.727 396.296 376.908 395.144 380.236 392.84C383.649 390.451 386.039 387.293 387.404 383.368H399.948C398.071 390.109 394.316 395.613 388.684 399.88C383.052 404.061 376.055 406.152 367.692 406.152C361.036 406.152 355.063 404.659 349.772 401.672C344.567 398.685 340.471 394.461 337.484 389C334.497 383.453 333.004 377.053 333.004 369.8C333.004 362.547 334.455 356.189 337.356 350.728C340.257 345.267 344.311 341.085 349.516 338.184C354.807 335.197 360.865 333.704 367.692 333.704C374.348 333.704 380.236 335.155 385.356 338.056C390.476 340.957 394.401 344.968 397.132 350.088C399.948 355.123 401.356 360.84 401.356 367.24ZM389.324 364.808C389.324 360.371 388.343 356.573 386.38 353.416C384.417 350.173 381.729 347.741 378.316 346.12C374.988 344.413 371.276 343.56 367.18 343.56C361.292 343.56 356.257 345.437 352.076 349.192C347.98 352.947 345.633 358.152 345.036 364.808H389.324ZM412.379 369.672C412.379 362.504 413.83 356.232 416.731 350.856C419.632 345.395 423.6 341.171 428.635 338.184C433.755 335.197 439.43 333.704 445.659 333.704C451.803 333.704 457.136 335.027 461.659 337.672C466.182 340.317 469.552 343.645 471.771 347.656V334.856H483.547V405H471.771V391.944C469.467 396.04 466.011 399.453 461.403 402.184C456.88 404.829 451.59 406.152 445.531 406.152C439.302 406.152 433.67 404.616 428.635 401.544C423.6 398.472 419.632 394.163 416.731 388.616C413.83 383.069 412.379 376.755 412.379 369.672ZM471.771 369.8C471.771 364.509 470.704 359.901 468.571 355.976C466.438 352.051 463.536 349.064 459.867 347.016C456.283 344.883 452.315 343.816 447.963 343.816C443.611 343.816 439.643 344.84 436.059 346.888C432.475 348.936 429.616 351.923 427.483 355.848C425.35 359.773 424.283 364.381 424.283 369.672C424.283 375.048 425.35 379.741 427.483 383.752C429.616 387.677 432.475 390.707 436.059 392.84C439.643 394.888 443.611 395.912 447.963 395.912C452.315 395.912 456.283 394.888 459.867 392.84C463.536 390.707 466.438 387.677 468.571 383.752C470.704 379.741 471.771 375.091 471.771 369.8ZM514.879 346.248C516.927 342.237 519.828 339.123 523.583 336.904C527.423 334.685 532.074 333.576 537.535 333.576V345.608H534.463C521.407 345.608 514.879 352.691 514.879 366.856V405H503.231V334.856H514.879V346.248ZM585.157 333.576C593.69 333.576 600.602 336.179 605.893 341.384C611.184 346.504 613.829 353.928 613.829 363.656V405H602.309V365.32C602.309 358.323 600.56 352.989 597.061 349.32C593.562 345.565 588.784 343.688 582.725 343.688C576.581 343.688 571.674 345.608 568.005 349.448C564.421 353.288 562.629 358.877 562.629 366.216V405H550.981V334.856H562.629V344.84C564.933 341.256 568.048 338.483 571.973 336.52C575.984 334.557 580.378 333.576 585.157 333.576ZM657.688 406.152C652.312 406.152 647.491 405.256 643.224 403.464C638.957 401.587 635.587 399.027 633.112 395.784C630.637 392.456 629.272 388.659 629.016 384.392H641.048C641.389 387.891 643.011 390.749 645.912 392.968C648.899 395.187 652.781 396.296 657.56 396.296C661.997 396.296 665.496 395.315 668.056 393.352C670.616 391.389 671.896 388.915 671.896 385.928C671.896 382.856 670.531 380.595 667.8 379.144C665.069 377.608 660.845 376.115 655.128 374.664C649.923 373.299 645.656 371.933 642.328 370.568C639.085 369.117 636.269 367.027 633.88 364.296C631.576 361.48 630.424 357.811 630.424 353.288C630.424 349.704 631.491 346.419 633.624 343.432C635.757 340.445 638.787 338.099 642.712 336.392C646.637 334.6 651.117 333.704 656.152 333.704C663.917 333.704 670.189 335.667 674.968 339.592C679.747 343.517 682.307 348.893 682.648 355.72H671C670.744 352.051 669.251 349.107 666.52 346.888C663.875 344.669 660.291 343.56 655.768 343.56C651.587 343.56 648.259 344.456 645.784 346.248C643.309 348.04 642.072 350.387 642.072 353.288C642.072 355.592 642.797 357.512 644.248 359.048C645.784 360.499 647.661 361.693 649.88 362.632C652.184 363.485 655.341 364.467 659.352 365.576C664.387 366.941 668.483 368.307 671.64 369.672C674.797 370.952 677.485 372.915 679.704 375.56C682.008 378.205 683.203 381.661 683.288 385.928C683.288 389.768 682.221 393.224 680.088 396.296C677.955 399.368 674.925 401.8 671 403.592C667.16 405.299 662.723 406.152 657.688 406.152ZM725.843 394.248L747.603 334.856H760.019L732.499 405H718.931L691.411 334.856H703.955L725.843 394.248ZM835.481 367.24C835.481 369.459 835.353 371.805 835.097 374.28H779.033C779.46 381.192 781.806 386.611 786.073 390.536C790.425 394.376 795.673 396.296 801.817 396.296C806.852 396.296 811.033 395.144 814.361 392.84C817.774 390.451 820.164 387.293 821.529 383.368H834.073C832.196 390.109 828.441 395.613 822.809 399.88C817.177 404.061 810.18 406.152 801.817 406.152C795.161 406.152 789.188 404.659 783.897 401.672C778.692 398.685 774.596 394.461 771.609 389C768.622 383.453 767.129 377.053 767.129 369.8C767.129 362.547 768.58 356.189 771.481 350.728C774.382 345.267 778.436 341.085 783.641 338.184C788.932 335.197 794.99 333.704 801.817 333.704C808.473 333.704 814.361 335.155 819.481 338.056C824.601 340.957 828.526 344.968 831.257 350.088C834.073 355.123 835.481 360.84 835.481 367.24ZM823.449 364.808C823.449 360.371 822.468 356.573 820.505 353.416C818.542 350.173 815.854 347.741 812.441 346.12C809.113 344.413 805.401 343.56 801.305 343.56C795.417 343.56 790.382 345.437 786.201 349.192C782.105 352.947 779.758 358.152 779.161 364.808H823.449ZM862.504 310.28V405H850.856V310.28H862.504ZM896.564 344.456V385.8C896.564 389.213 897.289 391.645 898.74 393.096C900.191 394.461 902.708 395.144 906.292 395.144H914.868V405H904.372C897.887 405 893.023 403.507 889.78 400.52C886.537 397.533 884.916 392.627 884.916 385.8V344.456H875.828V334.856H884.916V317.192H896.564V334.856H914.868V344.456H896.564ZM992.981 367.24C992.981 369.459 992.853 371.805 992.597 374.28H936.533C936.96 381.192 939.306 386.611 943.573 390.536C947.925 394.376 953.173 396.296 959.317 396.296C964.352 396.296 968.533 395.144 971.861 392.84C975.274 390.451 977.664 387.293 979.029 383.368H991.573C989.696 390.109 985.941 395.613 980.309 399.88C974.677 404.061 967.68 406.152 959.317 406.152C952.661 406.152 946.688 404.659 941.397 401.672C936.192 398.685 932.096 394.461 929.109 389C926.122 383.453 924.629 377.053 924.629 369.8C924.629 362.547 926.08 356.189 928.981 350.728C931.882 345.267 935.936 341.085 941.141 338.184C946.432 335.197 952.49 333.704 959.317 333.704C965.973 333.704 971.861 335.155 976.981 338.056C982.101 340.957 986.026 344.968 988.757 350.088C991.573 355.123 992.981 360.84 992.981 367.24ZM980.949 364.808C980.949 360.371 979.968 356.573 978.005 353.416C976.042 350.173 973.354 347.741 969.941 346.12C966.613 344.413 962.901 343.56 958.805 343.56C952.917 343.56 947.882 345.437 943.701 349.192C939.605 352.947 937.258 358.152 936.661 364.808H980.949ZM1047.52 405L1020 374.024V405H1008.36V310.28H1020V365.96L1047.01 334.856H1063.27L1030.24 369.8L1063.4 405H1047.52ZM1080.25 323.464C1078.03 323.464 1076.15 322.696 1074.62 321.16C1073.08 319.624 1072.31 317.747 1072.31 315.528C1072.31 313.309 1073.08 311.432 1074.62 309.896C1076.15 308.36 1078.03 307.592 1080.25 307.592C1082.38 307.592 1084.17 308.36 1085.62 309.896C1087.16 311.432 1087.93 313.309 1087.93 315.528C1087.93 317.747 1087.16 319.624 1085.62 321.16C1084.17 322.696 1082.38 323.464 1080.25 323.464ZM1085.88 334.856V405H1074.23V334.856H1085.88ZM1119.94 344.456V385.8C1119.94 389.213 1120.66 391.645 1122.12 393.096C1123.57 394.461 1126.08 395.144 1129.67 395.144H1138.24V405H1127.75C1121.26 405 1116.4 403.507 1113.16 400.52C1109.91 397.533 1108.29 392.627 1108.29 385.8V344.456H1099.2V334.856H1108.29V317.192H1119.94V334.856H1138.24V344.456H1119.94Z" fill="#FAFAFA"/>
</svg>
