<svg width="48" height="48" viewBox="0 0 48 48" fill="none" xmlns="http://www.w3.org/2000/svg">
<g clip-path="url(#clip0_42_37)">
<path d="M48 0H0V48H48V0Z" fill="#171717"/>
<path d="M7.94958 29.8125V18.3579H9.33665V28.582H14.6612V29.8125H7.94958ZM20.6794 17.821L16.988 31.5352H15.7798L19.4712 17.821H20.6794ZM28.6871 21.2216C28.6201 20.6548 28.3479 20.2148 27.8706 19.9016C27.3933 19.5884 26.8079 19.4318 26.1144 19.4318C25.6073 19.4318 25.1635 19.5139 24.7832 19.6779C24.4066 19.842 24.112 20.0676 23.8995 20.3546C23.6907 20.6418 23.5863 20.968 23.5863 21.3335C23.5863 21.6392 23.659 21.9021 23.8044 22.1221C23.9536 22.3384 24.1437 22.5192 24.3749 22.6646C24.6061 22.8063 24.8484 22.9237 25.102 23.0169C25.3556 23.1065 25.5886 23.1791 25.8011 23.2351L26.9645 23.5483C27.2628 23.6266 27.5947 23.7347 27.9601 23.8727C28.3292 24.0107 28.6816 24.1989 29.0171 24.4376C29.3565 24.6725 29.6362 24.9745 29.8561 25.3436C30.0761 25.7128 30.1861 26.1658 30.1861 26.7028C30.1861 27.3217 30.0239 27.8811 29.6995 28.3807C29.3788 28.8803 28.909 29.2775 28.2901 29.572C27.6748 29.8666 26.9273 30.0139 26.0472 30.0139C25.2269 30.0139 24.5167 29.8815 23.9163 29.6167C23.3198 29.352 22.8499 28.9829 22.5069 28.5093C22.1676 28.0357 21.9756 27.4858 21.9308 26.8594H23.3626C23.3999 27.2919 23.5453 27.6499 23.7988 27.9333C24.0562 28.2128 24.3805 28.4217 24.772 28.5596C25.1673 28.6939 25.5924 28.761 26.0472 28.761C26.5767 28.761 27.0521 28.6752 27.4734 28.5037C27.8948 28.3284 28.2285 28.0861 28.4746 27.7766C28.7207 27.4634 28.8438 27.098 28.8438 26.6804C28.8438 26.3001 28.7375 25.9906 28.5249 25.752C28.3124 25.5133 28.0328 25.3194 27.686 25.1703C27.3393 25.0211 26.9645 24.8906 26.5618 24.7788L25.1524 24.376C24.2574 24.1188 23.5491 23.7515 23.027 23.2743C22.505 22.797 22.244 22.1724 22.244 21.4006C22.244 20.7592 22.4174 20.1999 22.7641 19.7227C23.1146 19.2416 23.5844 18.8688 24.1736 18.604C24.7664 18.3356 25.4283 18.2014 26.1592 18.2014C26.8974 18.2014 27.5537 18.3337 28.1279 18.5985C28.7021 18.8595 29.157 19.2174 29.4925 19.6723C29.8319 20.1272 30.0109 20.6437 30.0295 21.2216H28.6871ZM32.4667 29.8125V18.3579H33.8538V24.0405H33.9879L39.1336 18.3579H40.9457L36.1357 23.5259L40.9457 29.8125H39.2678L35.2855 24.488L33.8538 26.0987V29.8125H32.4667Z" fill="#34D399"/>
</g>
<defs>
<clipPath id="clip0_42_37">
<rect width="48" height="48" rx="24" fill="white"/>
</clipPath>
</defs>
</svg>
