<svg width="512" height="512" viewBox="0 0 512 512" fill="none" xmlns="http://www.w3.org/2000/svg">
<rect width="512" height="512" rx="4" fill="#040707"/>
<path d="M135.008 156.56V346H111.712V156.56H135.008ZM224.376 348.304C213.624 348.304 203.981 346.512 195.448 342.928C186.915 339.173 180.173 334.053 175.224 327.568C170.275 320.912 167.544 313.317 167.032 304.784H191.096C191.779 311.781 195.021 317.499 200.824 321.936C206.797 326.373 214.563 328.592 224.12 328.592C232.995 328.592 239.992 326.629 245.112 322.704C250.232 318.779 252.792 313.829 252.792 307.856C252.792 301.712 250.061 297.189 244.6 294.288C239.139 291.216 230.691 288.229 219.256 285.328C208.845 282.597 200.312 279.867 193.656 277.136C187.171 274.235 181.539 270.053 176.76 264.592C172.152 258.96 169.848 251.621 169.848 242.576C169.848 235.408 171.981 228.837 176.248 222.864C180.515 216.891 186.573 212.197 194.424 208.784C202.275 205.2 211.235 203.408 221.304 203.408C236.835 203.408 249.379 207.333 258.936 215.184C268.493 223.035 273.613 233.787 274.296 247.44H251C250.488 240.101 247.501 234.213 242.04 229.776C236.749 225.339 229.581 223.12 220.536 223.12C212.173 223.12 205.517 224.912 200.568 228.496C195.619 232.08 193.144 236.773 193.144 242.576C193.144 247.184 194.595 251.024 197.496 254.096C200.568 256.997 204.323 259.387 208.76 261.264C213.368 262.971 219.683 264.933 227.704 267.152C237.773 269.883 245.965 272.613 252.28 275.344C258.595 277.904 263.971 281.829 268.408 287.12C273.016 292.411 275.405 299.323 275.576 307.856C275.576 315.536 273.443 322.448 269.176 328.592C264.909 334.736 258.851 339.6 251 343.184C243.32 346.597 234.445 348.304 224.376 348.304ZM386.798 346L331.758 284.048V346H308.462V156.56H331.758V267.92L385.774 205.712H418.286L352.238 275.6L418.542 346H386.798Z" fill="white"/>
</svg>
