<svg width="192" height="192" viewBox="0 0 192 192" fill="none" xmlns="http://www.w3.org/2000/svg">
<g clip-path="url(#clip0_42_45)">
<path d="M192 0H0V192H192V0Z" fill="#171717"/>
<path d="M31.7983 119.25V73.4317H37.3466V114.328H58.6448V119.25H31.7983ZM82.7175 71.2841L67.9519 126.141H63.1193L77.8849 71.2841H82.7175ZM114.749 84.8865C114.48 82.6192 113.391 80.8594 111.482 79.6065C109.573 78.3536 107.232 77.7274 104.457 77.7274C102.429 77.7274 100.654 78.0555 99.1328 78.7117C97.6264 79.368 96.4481 80.2702 95.598 81.4185C94.7629 82.5671 94.3452 83.8721 94.3452 85.3339C94.3452 86.5567 94.6362 87.6082 95.2178 88.4884C95.8144 89.3535 96.5749 90.0769 97.4996 90.6585C98.4244 91.2251 99.3938 91.695 100.408 92.0677C101.423 92.4259 102.354 92.7165 103.205 92.9404L107.858 94.1932C109.051 94.5064 110.379 94.9387 111.84 95.4907C113.317 96.0427 114.726 96.7957 116.069 97.7505C117.426 98.6899 118.545 99.8981 119.424 101.374C120.305 102.851 120.744 104.663 120.744 106.811C120.744 109.287 120.096 111.524 118.798 113.523C117.515 115.521 115.636 117.11 113.16 118.288C110.699 119.466 107.709 120.055 104.189 120.055C100.908 120.055 98.0666 119.526 95.6651 118.467C93.279 117.408 91.3995 115.932 90.0274 114.037C88.6703 112.143 87.9023 109.943 87.723 107.437H93.4504C93.5997 109.168 94.1813 110.599 95.1953 111.733C96.2247 112.851 97.5221 113.687 99.0881 114.238C100.669 114.775 102.369 115.044 104.189 115.044C106.307 115.044 108.209 114.701 109.894 114.015C111.579 113.314 112.914 112.344 113.898 111.106C114.883 109.854 115.375 108.392 115.375 106.722C115.375 105.2 114.95 103.962 114.1 103.008C113.25 102.053 112.131 101.278 110.744 100.681C109.357 100.084 107.858 99.5625 106.247 99.1151L100.61 97.5041C97.0298 96.4751 94.1963 95.0059 92.1079 93.0971C90.0199 91.188 88.9759 88.6897 88.9759 85.6024C88.9759 83.037 89.6697 80.7997 91.0564 78.8906C92.4585 76.9665 94.3376 75.4751 96.6945 74.4161C99.0656 73.3425 101.713 72.8055 104.637 72.8055C107.59 72.8055 110.215 73.335 112.512 74.394C114.809 75.438 116.628 76.8697 117.97 78.6892C119.328 80.5087 120.044 82.5746 120.118 84.8865H114.749ZM129.867 119.25V73.4317H135.415V96.162H135.952L156.534 73.4317H163.783L144.543 94.1036L163.783 119.25H157.071L141.142 97.9519L135.415 104.395V119.25H129.867Z" fill="#34D399"/>
</g>
<defs>
<clipPath id="clip0_42_45">
<rect width="192" height="192" fill="white"/>
</clipPath>
</defs>
</svg>
