<svg width="512" height="512" viewBox="0 0 512 512" fill="none" xmlns="http://www.w3.org/2000/svg">
<g clip-path="url(#clip0_42_42)">
<path d="M512 0H0V512H512V0Z" fill="#171717"/>
<path d="M84.7955 318V195.818H99.5909V304.875H156.386V318H84.7955ZM220.58 190.091L181.205 336.375H168.318L207.693 190.091H220.58ZM305.996 226.364C305.281 220.318 302.377 215.625 297.286 212.284C292.195 208.943 285.951 207.273 278.553 207.273C273.144 207.273 268.411 208.148 264.354 209.898C260.337 211.648 257.195 214.054 254.928 217.116C252.701 220.179 251.587 223.659 251.587 227.557C251.587 230.818 252.363 233.622 253.914 235.969C255.505 238.276 257.533 240.205 259.999 241.756C262.465 243.267 265.05 244.52 267.755 245.514C270.46 246.469 272.945 247.244 275.212 247.841L287.621 251.182C290.803 252.017 294.343 253.17 298.241 254.642C302.178 256.114 305.937 258.122 309.516 260.668C313.136 263.173 316.119 266.395 318.465 270.332C320.812 274.27 321.985 279.102 321.985 284.83C321.985 291.432 320.255 297.398 316.795 302.727C313.374 308.057 308.363 312.293 301.761 315.435C295.198 318.577 287.224 320.148 277.837 320.148C269.087 320.148 261.511 318.736 255.107 315.912C248.744 313.088 243.732 309.151 240.073 304.099C236.454 299.048 234.406 293.182 233.928 286.5H249.201C249.599 291.114 251.15 294.932 253.854 297.955C256.599 300.937 260.059 303.165 264.235 304.636C268.451 306.068 272.985 306.784 277.837 306.784C283.485 306.784 288.556 305.869 293.05 304.04C297.545 302.17 301.104 299.585 303.729 296.284C306.354 292.943 307.667 289.045 307.667 284.591C307.667 280.534 306.533 277.233 304.266 274.688C301.999 272.142 299.016 270.074 295.317 268.483C291.619 266.892 287.621 265.5 283.326 264.307L268.292 260.011C258.746 257.267 251.19 253.349 245.621 248.259C240.053 243.168 237.269 236.506 237.269 228.273C237.269 221.432 239.119 215.466 242.817 210.375C246.556 205.244 251.567 201.267 257.852 198.443C264.175 195.58 271.235 194.148 279.031 194.148C286.906 194.148 293.906 195.56 300.031 198.384C306.156 201.168 311.008 204.986 314.587 209.838C318.207 214.69 320.116 220.199 320.315 226.364H305.996ZM346.311 318V195.818H361.107V256.432H362.538L417.425 195.818H436.754L385.447 250.943L436.754 318H418.857L376.379 261.205L361.107 278.386V318H346.311Z" fill="#34D399"/>
</g>
<defs>
<clipPath id="clip0_42_42">
<rect width="512" height="512" fill="white"/>
</clipPath>
</defs>
</svg>
